<?xml version="1.0" standalone="no"?>
<!DOCTYPE svg PUBLIC "-//W3C//DTD SVG 20010904//EN"
 "http://www.w3.org/TR/2001/REC-SVG-20010904/DTD/svg10.dtd">
<svg version="1.0" xmlns="http://www.w3.org/2000/svg"
 width="160.000000pt" height="160.000000pt" viewBox="0 0 160.000000 160.000000"
 preserveAspectRatio="xMidYMid meet">
<metadata>
Created by potrace 1.14, written by Peter Selinger 2001-2017
</metadata>
<g transform="translate(0.000000,160.000000) scale(0.100000,-0.100000)"
fill="#000000" stroke="none">
<path d="M203 1518 c-8 -16 -41 -35 -107 -62 -53 -22 -96 -43 -96 -48 0 -10
23 -10 36 0 9 8 131 62 140 62 3 0 1 -8 -4 -17 -5 -10 -10 -53 -10 -97 -1 -43
-3 -80 -4 -82 -2 -1 -34 -5 -73 -7 -38 -3 -73 -6 -77 -6 -13 -2 -9 -31 5 -32
6 0 33 0 60 1 26 1 47 -1 47 -3 0 -3 -16 -17 -36 -32 l-35 -27 -22 23 c-14 15
-22 18 -25 10 -2 -7 3 -20 12 -30 15 -17 15 -20 1 -34 -15 -16 -20 -37 -8 -37
4 0 16 8 27 19 21 18 21 18 51 -10 l30 -29 -57 0 c-45 0 -58 -3 -58 -15 0 -8
8 -15 18 -16 46 -3 98 -7 105 -8 7 -1 3 -243 -8 -491 -2 -41 -6 -165 -10 -275
-4 -110 -8 -216 -8 -235 -2 -34 -1 -35 37 -38 33 -3 44 2 75 32 l37 36 34 -35
c27 -28 42 -35 73 -35 l38 0 -6 193 c-3 105 -7 226 -10 267 -2 41 -7 172 -10
290 -4 118 -8 230 -10 248 -1 18 2 35 7 38 6 4 56 8 111 9 56 2 172 6 257 10
85 3 203 8 261 10 l106 5 13 -40 c7 -22 19 -40 25 -40 9 0 12 -38 12 -135 0
-74 -3 -135 -6 -135 -14 0 -4 -115 12 -144 16 -29 15 -30 -13 -58 -33 -31 -38
-59 -16 -81 13 -13 11 -18 -15 -43 l-30 -29 -157 -1 c-146 -1 -185 -8 -153
-29 14 -8 14 -85 1 -85 -5 0 -10 -6 -10 -14 0 -11 17 -13 76 -12 42 0 78 -2
81 -7 2 -4 9 -4 15 -1 8 5 333 7 523 3 107 -2 158 11 124 31 -19 12 -18 72 0
87 9 6 13 15 9 18 -4 4 -68 8 -142 9 l-134 1 -40 34 -40 33 15 35 c9 22 11 39
5 45 -6 6 -14 -2 -21 -20 -10 -23 -17 -28 -37 -24 -13 2 -24 6 -24 8 0 9 56
109 62 112 11 5 10 130 0 136 -5 3 -8 15 -6 28 1 13 3 71 3 131 1 88 4 107 16
107 8 0 15 8 15 18 0 10 3 22 7 26 4 4 8 15 8 24 0 13 14 16 75 19 41 2 79 8
85 14 12 12 12 116 0 128 -10 10 -119 16 -420 26 l-140 4 -289 123 c-222 94
-291 128 -299 146 -7 16 -19 22 -42 22 -23 0 -35 -6 -42 -22z m447 -193 c85
-37 157 -69 160 -72 2 -2 -38 -1 -90 2 -52 4 -147 8 -210 10 -63 2 -131 3
-152 4 l-36 1 0 83 c1 45 -3 90 -7 99 -8 19 26 7 335 -127z m-376 83 c-10 -13
-20 -25 -21 -27 -4 -6 -43 31 -43 41 0 4 19 8 42 8 l41 0 -19 -22z m-60 -74
c-27 -41 -31 -32 -24 56 0 11 6 9 20 -8 18 -22 18 -25 4 -48z m83 21 c1 -35 0
-35 -18 -19 -18 16 -18 18 -3 36 10 10 18 18 18 18 1 0 2 -16 3 -35z m-19 -55
l23 -30 -58 0 -57 0 29 30 c16 17 32 30 35 30 3 0 16 -13 28 -30z m22 -68 c0
-7 -50 -52 -58 -52 -11 0 -54 45 -48 51 5 4 106 6 106 1z m181 -32 l-34 -29
-33 26 c-19 14 -34 27 -34 29 0 2 30 4 68 4 l67 -1 -34 -29z m188 21 c3 -1 -6
-12 -19 -26 l-24 -25 -22 21 c-13 12 -21 25 -19 29 4 6 51 6 84 1z m-250 -66
c1 -5 -15 -23 -34 -38 l-35 -28 0 67 0 66 34 -29 c19 -15 35 -32 35 -38z m385
43 c-10 -13 -19 -24 -20 -25 0 -2 -11 8 -24 22 l-23 25 43 0 43 0 -19 -22z
m145 -2 c13 -7 19 -16 13 -20 -5 -3 -21 3 -33 14 -27 22 -16 26 20 6z m191 3
c0 -13 -17 -19 -34 -13 -24 9 -19 20 9 20 14 0 25 -3 25 -7z m119 -15 c-9 -11
-15 -11 -25 -3 -21 18 -17 27 11 21 20 -3 23 -7 14 -18z m-1123 -34 c-1 -27
-3 -50 -5 -50 -3 0 -17 12 -32 26 l-27 26 26 24 c15 13 30 24 33 24 3 0 6 -22
5 -50z m64 33 c11 -10 20 -21 20 -25 0 -9 -37 -48 -45 -48 -2 0 -4 20 -3 45 0
25 2 45 4 45 2 0 13 -8 24 -17z m115 -28 c0 -51 -3 -54 -28 -25 -21 25 -21 29
0 52 24 27 28 23 28 -27z m212 0 c1 -51 -2 -53 -36 -24 l-24 20 23 24 c13 14
26 25 30 25 4 0 7 -20 7 -45z m60 -29 c-14 -14 -27 -26 -29 -26 -3 0 -2 86 1
100 1 2 13 -7 27 -22 l27 -26 -26 -26z m157 48 c18 -25 18 -26 -3 -45 -11 -10
-22 -19 -23 -19 -2 0 -4 20 -4 45 -1 25 2 45 5 45 3 0 14 -12 25 -26z m106
-15 c0 -42 -14 -49 -34 -16 -8 12 -5 21 8 36 11 12 21 21 23 21 1 0 3 -18 3
-41z m74 -10 c-3 -5 -14 -14 -25 -19 -17 -10 -19 -7 -19 30 l0 40 25 -22 c13
-11 22 -25 19 -29z m161 21 c8 -13 -1 -13 -26 0 -10 6 -19 15 -19 21 0 11 35
-5 45 -21z m295 15 c-10 -12 -16 -13 -26 -4 -20 16 -18 19 12 19 22 0 25 -2
14 -15z m-696 -32 c2 -22 -1 -30 -10 -26 -19 7 -25 32 -11 48 15 16 16 15 21
-22z m325 5 c12 -32 2 -42 -20 -22 -14 13 -16 20 -8 31 15 18 18 17 28 -9z
m161 2 c0 -21 -15 -27 -25 -10 -7 12 2 30 16 30 5 0 9 -9 9 -20z m42 -12 c-9
-9 -12 -7 -12 12 0 19 3 21 12 12 9 -9 9 -15 0 -24z m128 7 c0 -7 -7 -15 -15
-19 -11 -4 -15 1 -15 19 0 18 4 23 15 19 8 -4 15 -12 15 -19z m77 -12 c-3 -3
-11 -2 -17 2 -8 5 -7 11 2 22 12 15 13 14 16 -1 2 -10 1 -20 -1 -23z m-137 11
c0 -8 -5 -12 -10 -9 -6 4 -8 11 -5 16 9 14 15 11 15 -7z m-212 -16 c-6 -18
-25 -21 -25 -3 0 8 7 15 15 15 7 0 12 -5 10 -12z m-790 -30 l31 -33 -47 2
c-26 0 -53 2 -61 2 -10 1 -5 11 14 31 16 17 29 30 30 30 1 0 15 -15 33 -32z
m232 -24 c0 -2 -29 -4 -65 -4 l-65 0 32 29 32 29 33 -25 c18 -14 33 -27 33
-29z m310 14 c0 -4 -19 -8 -42 -8 l-41 0 23 25 c22 23 25 24 42 8 10 -9 18
-20 18 -25z m164 13 c3 -5 -14 -11 -38 -13 l-45 -3 21 22 c20 22 47 19 62 -6z
m272 14 c14 -13 12 -15 -16 -15 -26 0 -29 2 -18 15 16 18 16 18 34 0z m134 -6
c0 -5 -12 -9 -26 -9 -22 0 -24 2 -14 14 12 15 40 11 40 -5z m-733 -9 c23 -17
23 -20 7 -21 -11 0 -34 -2 -52 -3 l-32 -2 22 23 c26 28 24 28 55 3z m471 14
c33 -9 27 -20 -13 -20 -34 0 -42 6 -28 19 8 8 12 8 41 1z m-822 -87 c2 -2 -11
-18 -29 -35 l-32 -31 -33 30 c-18 17 -30 33 -28 37 4 7 115 6 122 -1z m904
-152 c0 -69 0 -128 0 -132 0 -4 -10 -8 -23 -8 -23 -2 -23 -1 -23 132 0 132 0
133 23 133 23 0 23 -1 23 -125z m-1000 50 c-7 -9 -21 -20 -31 -25 -15 -8 -17
-5 -14 28 2 20 4 44 4 52 1 10 9 7 28 -12 23 -23 25 -29 13 -43z m113 -34 c-2
-3 -17 9 -34 25 l-30 29 28 24 28 25 5 -50 c3 -27 4 -51 3 -53z m-45 -1 c17
-16 32 -32 32 -35 0 -3 -32 -5 -72 -5 l-72 0 34 35 c19 19 36 35 39 35 4 0 21
-14 39 -30z m0 -106 l-36 -37 -36 37 -37 36 73 0 73 0 -37 -36z m-86 -86 l-32
-33 0 65 0 65 32 -33 33 -32 -33 -32z m135 30 l3 -61 -28 24 c-15 13 -30 28
-33 33 -6 7 39 65 51 66 3 0 6 -28 7 -62z m-43 -53 c23 -20 33 -35 25 -36 -50
-4 -125 -4 -133 -1 -8 4 52 71 64 71 3 0 23 -15 44 -34z m26 -72 c0 -8 -58
-63 -66 -63 -8 0 -64 54 -64 62 0 2 29 3 65 3 36 0 65 -1 65 -2z m-114 -54
l33 -32 -35 -33 c-19 -19 -36 -34 -38 -34 -3 0 -4 29 -3 65 1 36 4 65 7 65 2
0 19 -14 36 -31z m138 -37 c4 -66 3 -67 -47 -23 l-27 25 32 33 c17 18 33 31
35 30 1 -2 5 -31 7 -65z m-20 -82 c-2 -4 -106 -5 -136 -1 -4 1 9 16 29 35 l38
34 36 -31 c20 -18 35 -34 33 -37z m950 -58 c18 -21 18 -21 -67 -19 -86 2 -101
11 -54 35 50 25 87 20 121 -16z m-954 20 c0 -4 -13 -16 -47 -45 -21 -18 -22
-18 -52 12 -17 17 -31 32 -31 33 0 2 29 3 65 3 36 1 65 -1 65 -3z m-126 -123
l-41 -40 3 33 c1 18 3 53 3 78 l1 45 37 -38 38 -37 -41 -41z m156 39 l0 -72
-35 34 c-19 19 -35 38 -35 42 0 7 60 67 68 68 1 0 2 -32 2 -72z m-55 -53 c19
-20 35 -37 35 -39 0 -2 -34 -3 -75 -2 -41 0 -75 2 -75 4 0 5 70 72 75 72 2 0
20 -16 40 -35z m6 -116 c-46 -44 -46 -44 -104 13 l-27 28 86 0 86 0 -41 -41z
m-106 -20 c19 -17 35 -35 35 -39 0 -12 -65 -80 -76 -80 -5 0 -8 34 -6 75 2 41
5 75 7 75 3 0 20 -14 40 -31z m164 -45 l2 -77 -29 24 c-55 45 -58 57 -21 95
18 19 36 34 39 34 3 0 7 -34 9 -76z"/>
</g>
</svg>
